<?xml version="1.0" encoding="utf-8"?>
<!-- Generator: Adobe Illustrator 16.0.3, SVG Export Plug-In . SVG Version: 6.00 Build 0)  -->
<!DOCTYPE svg PUBLIC "-//W3C//DTD SVG 1.1//EN" "http://www.w3.org/Graphics/SVG/1.1/DTD/svg11.dtd">
<svg version="1.1" id="Capa_1" xmlns="http://www.w3.org/2000/svg" xmlns:xlink="http://www.w3.org/1999/xlink" x="0px" y="0px"
	 width="302.564px" height="292.308px" viewBox="0 0 302.564 292.308" enable-background="new 0 0 302.564 292.308"
	 xml:space="preserve">
<ellipse fill="#E6E6E6" cx="149.189" cy="147.886" rx="138.209" ry="131.799"/>
<radialGradient id="SVGID_1_" cx="204.9429" cy="88.8691" r="137.3786" gradientTransform="matrix(1.4412 0 0 1.3743 -70.2274 -55.3555)" gradientUnits="userSpaceOnUse">
	<stop  offset="0" style="stop-color:#1A70AD"/>
	<stop  offset="0.6862" style="stop-color:#174777"/>
</radialGradient>
<path fill="url(#SVGID_1_)" d="M276.766,147.886c0,67.188-57.119,121.66-127.576,121.66S21.611,215.074,21.611,147.886
	c0-17.815,4.011-34.731,11.225-49.968C52.822,55.655,97.415,26.225,149.19,26.225s96.366,29.431,116.354,71.693
	C272.758,113.154,276.766,130.07,276.766,147.886z"/>
<path opacity="0.1" fill="#FFFFFF" d="M265.543,97.918c-19.987,42.263-64.578,71.692-116.354,71.692s-96.368-29.43-116.354-71.692
	C52.822,55.655,97.415,26.225,149.19,26.225S245.556,55.655,265.543,97.918z"/>
<path fill="#FFFFFF" d="M158.001,111.67c0-9.294,8.294-7.909,8.294-7.909h26.125V76.079h-39.188
	c-29.65,0-30.413,31.043-30.413,31.043v21.157v0.082l-16.86,0.116v25.31h16.86v77.706h35.183v-77.706h29.858l4.561-25.902
	l-34.419,0.235v-0.235C158.001,127.884,158.001,120.963,158.001,111.67z"/>
</svg>
