<?xml version="1.0" encoding="utf-8"?>
<!-- Generator: Adobe Illustrator 16.0.3, SVG Export Plug-In . SVG Version: 6.00 Build 0)  -->
<!DOCTYPE svg PUBLIC "-//W3C//DTD SVG 1.1//EN" "http://www.w3.org/Graphics/SVG/1.1/DTD/svg11.dtd">
<svg version="1.1" id="Capa_1" xmlns="http://www.w3.org/2000/svg" xmlns:xlink="http://www.w3.org/1999/xlink" x="0px" y="0px"
	 width="302.564px" height="292.308px" viewBox="0 0 302.564 292.308" enable-background="new 0 0 302.564 292.308"
	 xml:space="preserve">
<ellipse fill="#E6E6E6" cx="151.282" cy="146.155" rx="132.152" ry="132.625"/>
<radialGradient id="SVGID_1_" cx="98.2524" cy="91.0273" r="137.3788" gradientTransform="matrix(1.378 0 0 1.3829 88.5037 -61.3483)" gradientUnits="userSpaceOnUse">
	<stop  offset="0" style="stop-color:#35308D"/>
	<stop  offset="0.0936" style="stop-color:#39308D"/>
	<stop  offset="0.1998" style="stop-color:#462F8C"/>
	<stop  offset="0.3117" style="stop-color:#5A2D8B"/>
	<stop  offset="0.3618" style="stop-color:#652C8B"/>
	<stop  offset="0.4142" style="stop-color:#6B2C8A"/>
	<stop  offset="0.4886" style="stop-color:#7C2A8A"/>
	<stop  offset="0.5758" style="stop-color:#972788"/>
	<stop  offset="0.6599" style="stop-color:#B72386"/>
	<stop  offset="0.9786" style="stop-color:#F3931F"/>
</radialGradient>
<path fill="url(#SVGID_1_)" d="M273.269,146.155c0,67.609-54.618,122.424-121.987,122.424c-67.367,0-121.987-54.814-121.987-122.424
	c0-17.927,3.835-34.951,10.733-50.283c19.112-42.528,61.75-72.144,111.253-72.144c49.506,0,92.143,29.615,111.254,72.144
	C269.434,111.205,273.269,128.228,273.269,146.155z"/>
<path opacity="0.1" fill="#FFFFFF" d="M262.536,95.873c-19.111,42.529-61.748,72.142-111.254,72.142
	c-49.504,0-92.142-29.613-111.253-72.142c19.112-42.528,61.75-72.144,111.253-72.144C200.788,23.729,243.424,53.344,262.536,95.873z
	"/>
<g>
	<g>
		<path fill="#FFFFFF" d="M185.1,211.952h-67.633c-14.008,0-25.403-11.176-25.403-24.914v-69.894
			c0-13.736,11.396-24.912,25.403-24.912H185.1c14.006,0,25.4,11.175,25.4,24.912v69.894
			C210.5,200.776,199.106,211.952,185.1,211.952z M117.467,102.494c-8.369,0-15.179,6.572-15.179,14.65v69.894
			c0,8.08,6.81,14.65,15.179,14.65H185.1c8.367,0,15.176-6.57,15.176-14.65v-69.894c0-8.079-6.809-14.65-15.176-14.65H117.467z"/>
	</g>
	<g>
		<path fill="#FFFFFF" d="M151.282,183.165c-17.068,0-30.959-13.939-30.959-31.072c0-17.135,13.891-31.073,30.959-31.073
			c17.074,0,30.963,13.938,30.963,31.073C182.245,169.226,168.356,183.165,151.282,183.165z M151.282,131.282
			c-11.436,0-20.734,9.332-20.734,20.811c0,11.473,9.299,20.809,20.734,20.809c11.437,0,20.738-9.336,20.738-20.809
			C172.02,140.614,162.718,131.282,151.282,131.282z"/>
	</g>
	<path fill="#FFFFFF" d="M191.755,119.457c0,4.014-3.24,7.269-7.243,7.269c-3.998,0-7.239-3.255-7.239-7.269
		s3.241-7.269,7.239-7.269C188.515,112.188,191.755,115.443,191.755,119.457z"/>
</g>
</svg>
