<?xml version="1.0" encoding="utf-8"?>
<!-- Generator: Adobe Illustrator 16.0.3, SVG Export Plug-In . SVG Version: 6.00 Build 0)  -->
<!DOCTYPE svg PUBLIC "-//W3C//DTD SVG 1.1//EN" "http://www.w3.org/Graphics/SVG/1.1/DTD/svg11.dtd">
<svg version="1.1" id="Capa_1" xmlns="http://www.w3.org/2000/svg" xmlns:xlink="http://www.w3.org/1999/xlink" x="0px" y="0px"
	 width="302.564px" height="292.308px" viewBox="0 0 302.564 292.308" enable-background="new 0 0 302.564 292.308"
	 xml:space="preserve">
<ellipse fill="#E6E6E6" cx="151.282" cy="146.154" rx="127.556" ry="127.734"/>
<radialGradient id="SVGID_1_" cx="115.4712" cy="83.7002" r="137.3794" gradientTransform="matrix(1.3301 0 0 1.3319 67.7841 -43.9355)" gradientUnits="userSpaceOnUse">
	<stop  offset="0.073" style="stop-color:#49B7B5"/>
	<stop  offset="0.2971" style="stop-color:#43B0B5"/>
	<stop  offset="0.6144" style="stop-color:#319EB4"/>
	<stop  offset="0.9282" style="stop-color:#1B87B2"/>
</radialGradient>
<path fill="url(#SVGID_1_)" d="M269.026,146.154c0,65.116-52.719,117.909-117.744,117.909S33.538,211.271,33.538,146.154
	c0-17.266,3.7-33.66,10.358-48.427c18.446-40.96,59.601-69.483,107.385-69.483s88.938,28.523,107.384,69.483
	C265.324,112.495,269.026,128.889,269.026,146.154z"/>
<path opacity="0.1" fill="#FFFFFF" d="M258.666,97.728c-18.445,40.959-59.6,69.481-107.384,69.481S62.342,138.687,43.896,97.728
	c18.446-40.96,59.601-69.483,107.385-69.483S240.22,56.768,258.666,97.728z"/>
<path fill="#FFFFFF" d="M199.858,116.912c0,0,9.578-7.765,10.34-14.158c0,0-6.54,4.72-16.271,6.242c0,0-8.969-11.115-25.693-7.157
	c-16.725,3.959-20.221,22.685-18.244,30.146c0,0-29.039,0.458-52.756-26.492c0,0-11.555,19.336,8.361,34.256
	c0,0-9.556-0.607-11.694-3.046c0,0-0.924,20.25,20.817,25.274c0,0-5.17,1.827-11.859,1.065c0,0,5.625,16.747,24.021,17.204
	c0,0-16.723,13.855-38.313,10.81c0,0,22.748,16.785,53.813,10.148c1.48-0.316,2.98-0.686,4.497-1.111
	c19.685-5.991,36.712-18.779,46.145-37.316c0.624-1.201,1.232-2.449,1.814-3.74c4.091-9.035,7.028-20.194,6.391-33.143
	c0,0,9.729-6.851,12.77-12.941C213.996,112.954,207.76,115.846,199.858,116.912z"/>
</svg>
